<?xml version="1.0" encoding="UTF-8" standalone="no"?>
<!-- Created with Inkscape (http://www.inkscape.org/) -->

<svg
   xmlns:dc="http://purl.org/dc/elements/1.1/"
   xmlns:cc="http://creativecommons.org/ns#"
   xmlns:rdf="http://www.w3.org/1999/02/22-rdf-syntax-ns#"
   xmlns:svg="http://www.w3.org/2000/svg"
   xmlns="http://www.w3.org/2000/svg"
   xmlns:sodipodi="http://sodipodi.sourceforge.net/DTD/sodipodi-0.dtd"
   xmlns:inkscape="http://www.inkscape.org/namespaces/inkscape"
   width="1920"
   height="1080"
   viewBox="0 0 1920.0001 1080"
   id="svg123187"
   version="1.1"
   inkscape:version="0.91 r13725"
   sodipodi:docname="grbs-logo.svg">
  <defs
     id="defs123189" />
  <sodipodi:namedview
     id="base"
     pagecolor="#ffffff"
     bordercolor="#666666"
     borderopacity="1.0"
     inkscape:pageopacity="0.0"
     inkscape:pageshadow="2"
     inkscape:zoom="0.25"
     inkscape:cx="1274.9503"
     inkscape:cy="291.63843"
     inkscape:document-units="px"
     inkscape:current-layer="layer1"
     showgrid="false"
     inkscape:window-width="1366"
     inkscape:window-height="705"
     inkscape:window-x="-8"
     inkscape:window-y="-8"
     inkscape:window-maximized="1"
     units="px" />
  <metadata
     id="metadata123192">
    <rdf:RDF>
      <cc:Work
         rdf:about="">
        <dc:format>image/svg+xml</dc:format>
        <dc:type
           rdf:resource="http://purl.org/dc/dcmitype/StillImage" />
        <dc:title></dc:title>
      </cc:Work>
    </rdf:RDF>
  </metadata>
  <g
     inkscape:label="Layer 1"
     inkscape:groupmode="layer"
     id="layer1"
     transform="translate(0,27.637396)">
    <path
       style="fill:#dc0080;fill-opacity:1"
       d="M 308.69523,675.51252 C 141.03848,747.12302 57.217889,750.42015 12.900048,687.14756 -1.8737008,666.05514 -4.6404536,625.29454 8.1643035,617.38064 c 1.279224,-0.7907 3.0939125,-5.08761 4.1010565,-4.82479 2.634966,0.68737 3.513918,8.79679 2.987825,14.85722 -2.883112,33.21293 2.140366,42.90501 24.512281,47.29518 12.740758,2.50023 26.766132,1.04678 31.167447,-3.22973 12.170916,-11.82598 51.862457,-9.28127 62.912557,4.03328 25.12282,30.27117 69.79738,24.61633 186.14809,-23.56219 77.72647,-32.18493 174.06904,-55.22292 191.22207,-54.5997 0,0 -16.15253,12.83519 -43.9507,22.92423 -52.85658,16.4273 -104.91895,32.45755 -158.5697,55.23838 z m 136.94903,-42.55126 c 100.26444,-25.59904 213.84656,-10.12265 444.9056,56.93325 160.84044,46.67763 238.72384,63.79212 269.27814,67.13516 11.4393,1.25164 19.234,8.27295 19.234,8.27295 8.4215,6.56468 -66.8169,2.09454 -202.16724,-36.12612 -161.4273,-45.58439 -258.54596,-40.31843 -268.35682,14.55083 -4.16977,23.32031 -17.44586,37.90636 -34.50195,37.90636 -7.91588,0 -19.46421,9.47661 -25.66293,21.05909 -7.28098,13.60468 -11.31013,26.2138 -15.93661,25.82528 -4.77268,-0.40074 -10.07898,-14.25144 -13.48024,-29.73709 -13.0344,-59.34497 39.10848,-101.90225 134.14954,-109.48846 l 59.52818,-4.75156 -92.65997,-22.71983 c -221.34625,-54.273 -353.3114,-22.44289 -409.42347,98.75348 -64.71921,139.78689 104.35986,288.3728 225.84323,198.46998 76.46629,-56.58792 47.30964,-194.25816 -41.14121,-194.25816 -46.82966,0 -89.59225,40.95665 -78.6754,75.35276 5.47262,17.2427 15.77929,23.50225 21.53054,17.76492 2.57274,-2.56653 4.23383,-7.53391 4.14281,-14.99272 -0.36749,-30.13415 27.18143,-46.97962 54.57599,-33.37152 37.13892,18.44871 32.88892,82.89767 -6.34581,96.23027 -82.66357,28.08998 -137.01582,-78.70686 -69.12825,-135.83051 75.52006,-63.54592 176.47887,-7.44632 176.47887,98.06377 0,107.85943 -133.29254,171.24111 -233.64017,111.09717 -116.46779,-69.80526 -111.75516,-229.42583 9.22772,-312.54648 21.82885,-14.2863 46.18479,-24.92227 72.22545,-33.59282 z m 899.55604,202.49563 c -2.5022,-2.5022 -1.3727,-15.62635 2.51,-29.16473 6.6663,-23.24384 6.0969,-24.02978 -10.22,-14.10723 -45.8106,27.85784 -55.5092,31.32711 -87.902,31.44275 -39.3367,0.14017 -66.3085,-20.41879 -44.7138,-34.08332 17.3068,-10.95127 24.7293,-9.68229 24.7293,4.22772 0,15.94749 12.0614,22.86394 28.7226,16.47043 19.1582,-7.3517 16.5729,-22.68712 -7.6635,-45.45609 -25.2755,-23.74504 -26.6768,-38.51897 -4.7656,-50.24538 40.2481,-21.54016 96.1267,-1.88393 63.164,22.21898 -13.9642,10.21088 -16.5605,9.41632 -22.6029,-6.91762 -4.9989,-13.5134 -9.3277,-15.95234 -16.1698,-9.11029 -6.8419,6.84197 -3.3754,16.43566 12.9486,35.83572 12.2606,14.57077 20.1476,29.96208 17.5267,34.20274 -2.6209,4.24075 -1.5202,7.71039 2.4459,7.71039 15.7566,0 68.2321,-65.14412 78.0332,-96.8718 13.2244,-42.80976 51.6464,-105.26065 64.7722,-105.28033 31.7619,-0.0449 20.6805,52.83438 -23.3511,111.43493 -40.2732,53.59858 -42.8164,69.83099 -5.2334,33.40423 48.9293,-47.42421 78.1163,-28.83759 53.4245,34.02151 -23.8357,60.6799 24.6473,32.38233 63.8818,-37.2853 35.8346,-63.63029 113.572,-58.81332 105.9395,6.5645 -5.1367,44.00103 38.9829,9.89308 46.064,-35.61099 8.6401,-55.52348 31.4341,-45.50901 31.4341,13.81054 0,38.71475 2.8804,50.5418 12.3091,50.5418 11.9308,0 38.2327,-69.97151 38.2327,-101.71123 0,-7.92944 5.3124,-16.45569 11.8054,-18.94729 13.7962,-5.29408 21.6058,17.58837 21.7741,63.79904 0.081,22.64066 3.7533,31.58858 12.9589,31.58858 17.554,0 27.2756,-30.86536 22.9048,-72.7209 -2.265,-21.68895 0.194,-37.18107 6.5205,-41.09143 14.2353,-8.79796 25.7561,12.2313 23.1255,42.21144 -3.4659,39.49961 12.7917,37.43939 33.2358,-4.21182 14.8605,-30.27566 18.6758,-33.86723 18.9532,-17.84148 0.4861,28.07096 -32.0539,78.06629 -49.0068,75.29615 -7.6028,-1.24221 -24.3361,8.32695 -37.1851,21.26494 -27.258,27.44658 -51.2435,26.48795 -55.3162,-2.211 -2.6474,-18.65554 -4.2692,-17.6881 -21.327,12.72153 -25.0711,44.69496 -58.688,47.09535 -62.7622,4.48147 l -2.7183,-28.43109 -20.7504,30.53704 c -11.4128,16.79534 -27.2474,30.65754 -35.1881,30.8049 -7.9408,0.14735 -21.7959,5.83329 -30.7891,12.63545 -24.1437,18.26145 -60.5277,15.49445 -75.3965,-5.73382 l -12.6787,-18.10134 -29.9116,26.26278 c -51.0971,44.86378 -64.7261,23.68861 -42.3978,-65.87282 4.4973,-18.03952 0.3324,-15.77048 -29.0437,15.82475 -18.8616,20.28609 -34.2939,41.94889 -34.2939,48.13952 0,12.23265 -28.6319,30.95046 -36.0289,23.55347 z m 253.0843,-39.0818 c 4.69,-5.79123 8.8344,-20.00611 9.2097,-31.58867 0.3756,-11.58248 1.7406,-28.64036 3.0337,-37.90636 4.324,-30.98441 -29.6133,-20.38762 -46.7027,14.58282 -23.252,47.58082 4.5358,91.86173 34.4593,54.91221 z M 1434.8553,651.06736 c 5.275,-23.8136 4.8617,-24.328 -7.1669,-8.91953 -7.0206,8.99329 -12.7647,21.00284 -12.7647,26.68787 0,5.68512 -2.3617,17.28017 -5.2482,25.76679 -4.5451,13.36281 -3.5848,13.17295 7.1668,-1.41696 6.8284,-9.266 14.9342,-28.21913 18.013,-42.11817 z"
       id="path123176"
       inkscape:connector-curvature="0"
       sodipodi:nodetypes="cssssssscsccccssssssssscssssssssssssccsssssssssssssssscsssssssssscsscssscsssscsssscssssssssssssssss" />
    <text
       xml:space="preserve"
       style="font-style:normal;font-variant:normal;font-weight:normal;font-stretch:normal;font-size:140.84317017px;line-height:125%;font-family:sans-serif;-inkscape-font-specification:'sans-serif, Normal';text-align:start;letter-spacing:0px;word-spacing:0px;writing-mode:lr-tb;text-anchor:start;fill:#000000;fill-opacity:0.70588235;stroke:none;stroke-width:1px;stroke-linecap:butt;stroke-linejoin:miter;stroke-opacity:1"
       x="866.95953"
       y="175.03978"
       id="text123203"
       sodipodi:linespacing="125%"
       transform="scale(1.0043844,0.99563474)"><tspan
         sodipodi:role="line"
         id="tspan123205"
         x="866.95953"
         y="175.03978">grand rapids</tspan></text>
    <path
       sodipodi:nodetypes="sssssscssscssassssssssssssscsssssssssssssssssssssssssssssssssscsscscsssscsssssssscsssssssssssssscsscsscsssscsssccsssssscssssssssscss"
       inkscape:connector-curvature="0"
       id="path129749"
       d="M 262.8056,537.19482 C -21.221231,495.78379 -41.094268,207.16024 221.8892,106.3205 c 17.99328,-6.899482 40.50814,-10.348102 58.15814,-17.826132 13.95235,-5.91137 24.67471,-14.58964 31.97924,-19.1685 105.13313,-65.9032794 243.59522,-71.3001612 380.88617,-14.8451 42.3136,17.39968 53.25255,18.83507 82.83537,10.86923 31.19979,-8.40126 100.39512,1.50341 79.87811,7.83852 -2.34226,2.34235 -21.50457,3.6603 -42.92949,5.00889 -52.26849,3.29003 -54.18908,7.63662 -18.63272,42.168482 53.92829,52.37452 50.81356,112.3906 -7.88596,151.94817 l -26.0226,17.5367 24.13328,27.00991 c 16.38238,18.33495 24.13338,36.0714 24.13338,55.22364 0,10.2001 -1.12729,23.68663 3.20529,34.33285 2.95173,7.25322 11.87077,14.13167 14.77002,18.26864 20.27207,28.92645 17.65019,28.72338 -8.79517,11.89812 -5.36925,-3.41599 -9.86724,-7.34424 -11.94705,-9.85399 -4.13355,-4.98804 -6.2316,-3.72706 -12.19886,8.62167 -24.53483,50.77237 -93.61528,104.87762 -156.96829,101.99669 -38.85825,-1.76703 -48.19101,-4.9805 -75.92557,-36.41094 -11.56037,-13.10089 -11.89084,-13.83157 -58.28184,7.40695 C 432.63,540.23138 351.0433,550.05985 262.8056,537.19482 Z m 171.10596,-37.5075 C 503.74227,459.31722 546.36937,397.4227 607.34318,250.94472 634.5203,185.6571 655.37524,142.23931 682.23751,115.21342 702.25288,95.076128 715.73069,88.206488 714.24732,86.906508 644.96039,26.186167 471.74774,10.442022 353.55763,67.232938 c -10.92529,5.24961 -25.12327,12.5066 -33.64035,19.20121 23.02747,-0.85269 46.22306,0.33605 69.08233,3.52239 85.3099,11.890392 155.76374,65.324532 168.13494,111.715802 1.57286,5.89825 3.20511,10.67227 5.47837,10.72906 4.49656,0.11231 11.27823,-11.72211 17.93035,-27.78182 6.17131,-14.89883 4.8397,-36.43449 3.91252,-56.85958 -1.27294,-28.043012 3.037,-20.27187 7.84238,-21.0915 25.0265,-4.26862 17.98686,74.38566 -2.92208,108.67942 -4.66665,7.65396 -12.30884,16.95841 -15.36319,26.66172 -2.9989,9.52747 -2.88928,23.95906 -4.23221,30.77237 -11.34113,57.54013 -68.48051,117.73052 -146.97683,142.43814 -120.58711,37.95613 -245.66896,-30.8907 -236.68572,-121.39999 1.92149,-19.35971 8.56227,-14.47329 14.09306,-14.8698 5.31557,-0.38098 5.24906,1.77476 6.72925,20.06244 9.42706,116.47161 194.50961,147.60958 296.72716,44.79964 27.32213,-27.48046 43.02091,-59.63009 36.37608,-67.72998 -3.09981,-3.77864 -13.23135,3.3531 -25.50066,8.0494 -148.80657,56.95797 -301.83934,-19.6255 -272.38841,-129.69306 3.3949,-12.68784 21.12018,-34.76603 15.56263,-38.96013 -6.16523,-4.65272 -36.50581,9.50895 -50.37521,14.24846 -25.26206,8.63255 -59.09921,33.29263 -94.98084,66.47636 -180.705013,167.118 106.30123,427.92234 321.55036,303.48383 z m 239.7608,-6.56306 c 28.50594,-28.58798 60.78378,-89.17471 53.6541,-100.71082 -14.08701,-22.79332 -99.80995,3.81395 -128.08093,39.7547 -53.15102,67.57058 13.44502,122.11323 74.42683,60.95612 z m 39.92821,-124.24865 c 49.38765,0 36.6787,-69.8708 -14.02592,-77.11145 -36.26889,-5.17925 -30.90238,-23.97218 6.84557,-23.97218 53.59596,0 82.99126,-89.61525 46.48929,-141.72901 -25.12336,-35.868772 -53.13197,7.75756 -88.28759,137.5172 -12.55216,46.33 -25.53687,92.61632 -28.85502,102.85847 -5.71854,17.65189 -4.56277,18.20053 22.18422,10.52958 15.51934,-4.45091 40.56166,-8.09261 55.64945,-8.09261 z M 505.95228,264.74645 C 607.12035,210.53751 444.06556,77.633678 311.51299,106.26147 c -45.56113,9.84004 -65.41907,68.84241 -39.9734,118.76981 29.30661,57.50274 159.9182,79.63152 234.41269,39.71517 z m 359.32928,271.92714 c -21.06735,-12.27065 -18.28077,-38.02433 9.42369,-87.09229 l 24.16509,-42.79934 -30.48268,0 c -36.91241,0 -43.75618,-31.25011 -11.52965,-52.64767 17.76547,-11.79587 18.95314,-11.39846 18.95314,6.3432 0,19.91931 4.94339,20.16362 71.25118,3.52139 l 22.6749,-5.69105 -34.32764,68.27421 c -18.88008,37.55081 -34.32754,72.1489 -34.32754,76.88473 0,36.62704 105.75255,-55.44341 129.80615,-113.0121 9.8429,-23.55716 17.2744,-30.0027 34.5926,-30.0027 25.2027,0 24.9964,1.9887 -9.3245,89.8849 -23.6222,60.4967 -24.7181,70.16415 -7.9538,70.16415 12.586,0 70.4061,-45.75134 83.1256,-65.7747 36.1293,-56.87638 89.0281,-94.35126 144.2385,-102.1825 l 33.3274,-4.7273 21.7551,-71.6009 c 19.7995,-65.16416 23.808,-71.84044 44.5912,-74.26627 28.2455,-3.29685 28.2383,-2.82746 -1.3839,88.24806 -85.1103,261.67826 -85.0079,263.26415 10.3929,161.00312 70.8639,-75.95971 108.1642,-99.17219 159.3602,-99.17219 63.1434,0 65.1231,17.83753 16.594,149.51955 -6.7137,18.2176 17.851,10.81155 47.0799,-14.19402 22.2938,-19.07255 32.3184,-38.58016 48.5225,-94.4236 54.7578,-188.70793 163.2239,-301.533852 137.7367,-143.27305 -7.989,49.60789 -40.7465,115.41396 -85.5686,171.89804 -11.8942,14.98904 -18.1009,34.01154 -17.5411,53.76076 1.7657,62.29006 28.541,46.46009 113.6471,-25.10297 73.4032,-61.72237 73.6052,-61.58849 18.9884,9.07371 -69.5987,90.0452 -139.1262,115.2267 -164.4526,61.91691 -5.5053,-11.58814 -12.6209,-21.75769 -12.9794,-33.7135 -10.9794,3.57405 -26.4572,18.39371 -39.6857,27.59053 -50.4122,35.04771 -89.9433,34.33545 -89.9433,-4.76801 l 0,-18.0193 -18.9533,17.7546 c -40.3447,37.79323 -87.703,38.83596 -107.224,2.36068 l -9.3477,-17.46635 -27.0034,20.22535 c -47.5472,35.61234 -90.1807,37.70769 -90.1807,4.43214 0,-20.19543 -7.0669,-20.12786 -28.9398,0.27674 -32.4928,30.31161 -68.3269,36.40744 -88.0133,1.67116 -6.3125,-11.13825 -9.1884,-28.03565 -9.8614,-36.25308 -13.3258,9.80215 -25.1005,19.75498 -36.09,27.22088 -54.7789,37.21476 -106.65177,38.41096 -106.65177,-4.94636 0,-26.06241 -3.7108,-25.95198 -31.95626,0.95153 -36.60566,34.86639 -68.83516,44.26861 -96.50421,28.15282 z m 371.71574,-45.76895 c 80.0192,-91.13689 66.8582,-164.4155 -13.8114,-76.89938 -44.9648,48.78115 -57.6682,106.49576 -23.4403,106.49576 6.1961,0 22.9594,-13.31832 37.2517,-29.59638 z m 248.5327,1.67377 c 14.4461,-15.35753 36.9264,-47.57786 49.9562,-71.6009 l 23.6908,-43.67827 -23.102,0 c -43.0803,0 -119.7569,102.96008 -100.2192,134.57266 9.1484,14.80223 22.4685,9.62864 49.6742,-19.29349 z m 261.7419,-178.40458 c 18.8767,-60.01403 6.1006,-92.45818 -14.3802,-36.51779 -7.343,20.05624 -15.5565,45.38107 -18.2524,56.27734 -2.6959,10.89628 -7.2976,27.95416 -10.2263,37.90636 -12.538,42.6075 28.8234,-13.04347 42.8589,-57.66591 z M 1063.96,305.13219 c -2.7863,-7.26096 -1.1745,-17.09302 3.5815,-21.84908 13.9943,-13.99437 39.6986,-4.23203 42.6114,16.18363 3.2552,22.81651 -37.6846,27.83771 -46.1929,5.66545 z"
       style="fill:#00d2c8;fill-opacity:1" />
  </g>
</svg>
